<?xml version="1.0" encoding="utf-8"?>
<!-- Generator: Adobe Illustrator 18.0.0, SVG Export Plug-In . SVG Version: 6.00 Build 0)  -->
<!DOCTYPE svg PUBLIC "-//W3C//DTD SVG 1.1//EN" "http://www.w3.org/Graphics/SVG/1.1/DTD/svg11.dtd">
<svg version="1.1" id="Layer_1" xmlns="http://www.w3.org/2000/svg" xmlns:xlink="http://www.w3.org/1999/xlink" x="0px" y="0px"
	 viewBox="0 0 64 64" enable-background="new 0 0 64 64" xml:space="preserve">
<g>
	<g>
		<g>
			<path fill="none" d="M32,0c17.7,0,32,14.3,32,32S49.7,64,32,64S0,49.7,0,32S14.3,0,32,0z"/>
		</g>
	</g>
	<g>
		<g>
			<path fill="none" d="M35.7,44.1C34.5,44,33.3,44,32,44s-2.5,0-3.7,0.1C20.7,44.6,15,46.6,15,49c0,2.8,7.6,5,17,5s17-2.2,17-5
				C49,46.6,43.3,44.6,35.7,44.1z"/>
		</g>
	</g>
	<g>
		<g>
			<path fill="#212649" d="M32,10c-7.7,0-14,6.2-14,13.8c0,2.9,0.9,5.5,2.4,7.8l7.9,12.6h0L32,50l3.7-5.9h0l7.9-12.6
				c1.5-2.2,2.4-4.9,2.4-7.8C46,16.2,39.7,10,32,10z M32,29c-2.8,0-5-2.2-5-5s2.2-5,5-5s5,2.2,5,5S34.8,29,32,29z"/>
		</g>
	</g>
	<g>
		<g>
			<path fill="#B21212" d="M32,16c4.4,0,8,3.6,8,8s-3.6,8-8,8s-8-3.6-8-8S27.6,16,32,16z M37,24c0-2.8-2.2-5-5-5s-5,2.2-5,5
				s2.2,5,5,5S37,26.8,37,24z"/>
		</g>
	</g>
</g>
</svg>
